<svg width="949" height="195" viewBox="0 0 949 195" fill="none" xmlns="http://www.w3.org/2000/svg">
<path d="M0 0H949V195H6C2.68629 195 0 192.314 0 189V0Z" fill="#340067"/>
<mask id="mask0" mask-type="alpha" maskUnits="userSpaceOnUse" x="0" y="0" width="949" height="195">
<path d="M0 0H949V195H6C2.68629 195 0 192.314 0 189V0Z" fill="#340067"/>
</mask>
<g mask="url(#mask0)">
<ellipse cx="544.5" cy="11.9907" rx="49.3062" ry="50.3848" transform="rotate(-26.2353 544.5 11.9907)" fill="url(#paint0_linear)" fill-opacity="0.7"/>
<circle cx="191.635" cy="177.308" r="111" transform="rotate(-12.2348 191.635 177.308)" fill="url(#paint1_linear)"/>
<circle cx="70.9913" cy="68.9913" r="89.5" transform="rotate(-50.4912 70.9913 68.9913)" fill="url(#paint2_linear)" fill-opacity="0.15"/>
<ellipse cx="874.5" cy="138.761" rx="93.5591" ry="96.3794" transform="rotate(-10.4586 874.5 138.761)" fill="url(#paint3_linear)" fill-opacity="0.5"/>
<circle cx="919" cy="28" r="50" fill="url(#paint4_linear)" fill-opacity="0.15"/>
</g>
<defs>
<linearGradient id="paint0_linear" x1="495.194" y1="11.9907" x2="593.806" y2="11.9907" gradientUnits="userSpaceOnUse">
<stop stop-color="#ED4264"/>
<stop offset="1" stop-color="#FFEDBC"/>
</linearGradient>
<linearGradient id="paint1_linear" x1="80.6346" y1="177.308" x2="302.635" y2="177.308" gradientUnits="userSpaceOnUse">
<stop stop-color="#ED4264" stop-opacity="0.7"/>
<stop offset="1" stop-color="#FFEDBC" stop-opacity="0.7"/>
</linearGradient>
<linearGradient id="paint2_linear" x1="-18.5087" y1="68.9913" x2="160.491" y2="68.9913" gradientUnits="userSpaceOnUse">
<stop stop-color="#9796F0"/>
<stop offset="1" stop-color="#FBC7D4"/>
</linearGradient>
<linearGradient id="paint3_linear" x1="780.941" y1="138.761" x2="968.059" y2="138.761" gradientUnits="userSpaceOnUse">
<stop stop-color="#9796F0"/>
<stop offset="1" stop-color="#FBC7D4"/>
</linearGradient>
<linearGradient id="paint4_linear" x1="869" y1="28" x2="969" y2="28" gradientUnits="userSpaceOnUse">
<stop stop-color="#9796F0"/>
<stop offset="1" stop-color="#FBC7D4"/>
</linearGradient>
</defs>
</svg>
